<svg id="visual" viewBox="0 0 900 600" width="900" height="600" xmlns="http://www.w3.org/2000/svg" xmlns:xlink="http://www.w3.org/1999/xlink" version="1.1"><g><g transform="translate(782 398)"><path d="M0 -48.6L42.1 -24.3L42.1 24.3L0 48.6L-42.1 24.3L-42.1 -24.3Z" fill="none" stroke="#eaedf9" stroke-width="3"></path></g><g transform="translate(574 165)"><path d="M0 -28L24.2 -14L24.2 14L0 28L-24.2 14L-24.2 -14Z" fill="none" stroke="#eaedf9" stroke-width="3"></path></g><g transform="translate(220 342)"><path d="M0 -44L38.1 -22L38.1 22L0 44L-38.1 22L-38.1 -22Z" fill="none" stroke="#eaedf9" stroke-width="3"></path></g><g transform="translate(835 206)"><path d="M0 -35L30.3 -17.5L30.3 17.5L0 35L-30.3 17.5L-30.3 -17.5Z" stroke="#eaedf9" fill="none" stroke-width="3"></path></g><g transform="translate(613 66)"><path d="M0 -21L18.2 -10.5L18.2 10.5L0 21L-18.2 10.5L-18.2 -10.5Z" stroke="#eaedf9" fill="none" stroke-width="3"></path></g><g transform="translate(774 77)"><path d="M0 -43L37.2 -21.5L37.2 21.5L0 43L-37.2 21.5L-37.2 -21.5Z" stroke="#eaedf9" fill="none" stroke-width="3"></path></g><g transform="translate(117 535)"><path d="M0 -29L25.1 -14.5L25.1 14.5L0 29L-25.1 14.5L-25.1 -14.5Z" stroke="#eaedf9" fill="none" stroke-width="3"></path></g><g transform="translate(101 265)"><path d="M0 -43L37.2 -21.5L37.2 21.5L0 43L-37.2 21.5L-37.2 -21.5Z" stroke="#eaedf9" fill="none" stroke-width="3"></path></g><g transform="translate(127 418)"><path d="M0 -37L32 -18.5L32 18.5L0 37L-32 18.5L-32 -18.5Z" stroke="#eaedf9" fill="none" stroke-width="3"></path></g><g transform="translate(315 539)"><path d="M0 -42L36.4 -21L36.4 21L0 42L-36.4 21L-36.4 -21Z" stroke="#eaedf9" fill="none" stroke-width="3"></path></g></g></svg>